<svg id="SvgjsSvg1001" width="288" height="288" xmlns="http://www.w3.org/2000/svg" version="1.1" xmlns:xlink="http://www.w3.org/1999/xlink" xmlns:svgjs="http://svgjs.com/svgjs"><defs id="SvgjsDefs1002"></defs><g id="SvgjsG1008" transform="matrix(1,0,0,1,0,0)"><svg xmlns="http://www.w3.org/2000/svg" width="288" height="288" fill="none" viewBox="0 0 40 40"><path fill="#775ada" fill-opacity=".1" d="M19.9999 40C31.0456 40 39.9999 31.0457 39.9999 20C39.9999 8.9543 31.0456 0 19.9999 0C8.95424 0 -6.10352e-05 8.9543 -6.10352e-05 20C-6.10352e-05 31.0457 8.95424 40 19.9999 40Z" class="colorfff svgShape"></path><path fill="#775ada" d="M18.8424 28.0463C14.9124 27.4707 11.8964 24.0828 11.8964 19.9891 11.8964 15.8954 14.9124 12.5075 18.8424 11.9322V7.69238C12.5855 8.29084 7.69232 13.5677 7.69232 19.9891 7.69232 26.4104 12.5855 31.687 18.8424 32.2858V28.0463zM26.9983 12L26.8892 12.3711V23.1393L26.9983 23.2483 31.9968 20.2937 26.9983 12z" class="colorfff svgShape"></path><path fill="#775ada" d="M26.9984 12L21.9999 20.2937 26.9984 23.2483V18.0217 12zM26.9986 24.8742L26.9371 24.9492V28.7851L26.9986 28.9648 32.0001 21.9211 26.9986 24.8742z" class="colorfff svgShape"></path><path fill="#775ada" d="M26.9984 28.9648V24.8742L21.9999 21.9211 26.9984 28.9648zM26.9984 23.2482L31.9968 20.2937 26.9984 18.0217V23.2482zM21.9999 20.2937L26.9983 23.2482V18.0217L21.9999 20.2937z" class="colorfff svgShape"></path></svg></g></svg>