<svg xmlns="http://www.w3.org/2000/svg" width="24" height="24" fill="none"><path d="M17.34 5.46a1.2 1.2 0 0 0-1.109.741 1.2 1.2 0 0 0 .26 1.308 1.2 1.2 0 0 0 1.308.26 1.2 1.2 0 0 0 .741-1.109 1.2 1.2 0 0 0-1.2-1.2zm4.6 2.42a7.59 7.59 0 0 0-.46-2.43 4.94 4.94 0 0 0-1.16-1.77 4.7 4.7 0 0 0-1.77-1.15 7.3 7.3 0 0 0-2.43-.47L12 2l-4.12.06a7.3 7.3 0 0 0-2.43.47 4.78 4.78 0 0 0-1.77 1.15 4.7 4.7 0 0 0-1.15 1.77 7.3 7.3 0 0 0-.47 2.43L2 12l.06 4.12a7.3 7.3 0 0 0 .47 2.43 4.7 4.7 0 0 0 1.15 1.77 4.78 4.78 0 0 0 1.77 1.15 7.3 7.3 0 0 0 2.43.47L12 22l4.12-.06a7.3 7.3 0 0 0 2.43-.47 4.7 4.7 0 0 0 1.77-1.15 4.85 4.85 0 0 0 1.16-1.77 7.59 7.59 0 0 0 .46-2.43L22 12l-.06-4.12zM20.14 16a5.61 5.61 0 0 1-.34 1.86 3.06 3.06 0 0 1-.75 1.15 3.19 3.19 0 0 1-1.15.75 5.61 5.61 0 0 1-1.86.34l-4 .06c-2.63 0-3 0-4-.06a5.73 5.73 0 0 1-1.94-.3 3.27 3.27 0 0 1-1.1-.75 3 3 0 0 1-.74-1.15 5.54 5.54 0 0 1-.4-1.9l-.06-4 .06-4a5.54 5.54 0 0 1 .35-1.9A3 3 0 0 1 5 5a3.14 3.14 0 0 1 1.1-.8A5.73 5.73 0 0 1 8 3.86l4-.06 4 .06a5.61 5.61 0 0 1 1.86.34 3.06 3.06 0 0 1 1.19.8 3.06 3.06 0 0 1 .75 1.1 5.61 5.61 0 0 1 .34 1.9l.06 4-.06 4zM12 6.87a5.13 5.13 0 0 0-4.732 3.174 5.13 5.13 0 0 0 1.118 5.587 5.13 5.13 0 0 0 5.589 1.107A5.13 5.13 0 0 0 17.14 12a5.12 5.12 0 0 0-1.503-3.634A5.12 5.12 0 0 0 12 6.87zm0 8.46a3.33 3.33 0 0 1-3.077-2.056 3.33 3.33 0 0 1 .722-3.629 3.33 3.33 0 0 1 3.629-.722A3.33 3.33 0 0 1 15.33 12a3.33 3.33 0 0 1-.975 2.355A3.33 3.33 0 0 1 12 15.33z" fill="#fff"/></svg>