<svg xmlns="http://www.w3.org/2000/svg" width="24" height="24" fill="none"><path d="M20.47 2H3.53a1.45 1.45 0 0 0-1.031.411A1.45 1.45 0 0 0 2.06 3.43v17.14a1.45 1.45 0 0 0 .439 1.02A1.45 1.45 0 0 0 3.53 22h16.94a1.45 1.45 0 0 0 1.031-.41 1.45 1.45 0 0 0 .439-1.02V3.43a1.45 1.45 0 0 0-.439-1.019A1.45 1.45 0 0 0 20.47 2zM8.09 18.74h-3v-9h3v9zM6.59 8.48a1.56 1.56 0 0 1-1.56-1.56 1.56 1.56 0 0 1 1.56-1.56 1.57 1.57 0 0 1 1.223.389 1.57 1.57 0 0 1 .524 1.171 1.57 1.57 0 0 1-.524 1.171 1.57 1.57 0 0 1-1.223.389zm12.32 10.26h-3v-4.83c0-1.21-.43-2-1.52-2A1.65 1.65 0 0 0 12.85 13a2 2 0 0 0-.1.73v5h-3v-9h3V11a3 3 0 0 1 2.71-1.5c2 0 3.45 1.29 3.45 4.06v5.18z" fill="#fff"/></svg>