<svg xmlns="http://www.w3.org/2000/svg" width="80" height="80" fill="none"><circle cx="40" cy="40" r="40" fill="#c4c4c4"/><g clip-path="url(#a)"><path d="M78.804 49.673c-5.344 21.44-27.067 34.473-48.476 29.128C8.887 73.457-4.146 51.736 1.199 30.327 6.543 8.887 28.234-4.146 49.674 1.199c21.409 5.313 34.474 27.034 29.129 48.475z" fill="url(#b)"/><path d="M59.045 35.016c.781-5.313-3.25-8.188-8.812-10.094l1.813-7.219-4.375-1.094-1.75 7.031-3.531-.812 1.75-7.062-4.375-1.094-1.781 7.188-2.812-.656v-.031l-6.062-1.5-1.156 4.688 3.188.781c1.781.438 2.094 1.625 2.031 2.563l-2.062 8.219c.125.031.281.063.469.156-.156-.031-.312-.062-.469-.125l-2.875 11.5c-.219.531-.781 1.344-2 1.031.031.063-3.187-.781-3.187-.781l-2.187 5.031 5.719 1.438 3.125.813-1.812 7.281 4.375 1.094 1.813-7.219 3.5.906-1.781 7.188 4.375 1.094 1.813-7.281c7.5 1.406 13.125.844 15.469-5.937 1.906-5.437-.094-8.594-4.031-10.656 2.906-.656 5.063-2.562 5.625-6.437zM49.014 49.078c-1.344 5.438-10.531 2.5-13.5 1.75l2.406-9.656c2.969.75 12.531 2.219 11.094 7.906zm1.375-14.156c-1.25 4.969-8.875 2.438-11.344 1.813l2.188-8.75c2.469.625 10.438 1.781 9.156 6.937z" fill="#fff"/></g><defs><linearGradient id="b" x1="39.979" y1="-.019" x2="39.979" y2="79.992" gradientUnits="userSpaceOnUse"><stop stop-color="#f9aa4b"/><stop offset="1" stop-color="#f7931a"/></linearGradient><clipPath id="a"><path fill="#fff" d="M0 0h80v80H0z"/></clipPath></defs></svg>