<svg xmlns="http://www.w3.org/2000/svg" width="80" height="80" fill="none"><g clip-path="url(#a)"><circle cx="40" cy="40" r="40" fill="#fff"/><path d="M40 0A40 40 0 0 0 3.045 24.693 40 40 0 0 0 .769 47.804a40 40 0 0 0 31.428 31.428 40 40 0 0 0 41.062-17.009 40 40 0 0 0-4.974-50.507A40 40 0 0 0 40 0zm-.873 12.26h8.613a1.136 1.136 0 0 1 .91.453c.107.141.179.303.212.476a1.14 1.14 0 0 1-.022.521l-6.767 23.06 6.35-1.94-1.36 4.617-6.413 1.867-4.16 14.047h22.253c.176.001.35.043.508.122a1.14 1.14 0 0 1 .61.813c.032.173.024.352-.025.522l-1.94 6.667a1.53 1.53 0 0 1-1.467 1.1H22.443l5.743-19.407-6.353 1.933 1.4-4.537L29.6 40.64l8.073-27.267a1.52 1.52 0 0 1 1.457-1.113h-.003z" fill="#59c19c"/></g><defs><clipPath id="a"><path fill="#fff" d="M0 0h80v80H0z"/></clipPath></defs></svg>