<svg xmlns="http://www.w3.org/2000/svg" width="32" height="32" fill="#3671e9"><path d="M30 31H3a2 2 0 0 1-2-2V2a1 1 0 1 1 2 0v27h27a1 1 0 1 1 0 2zM9.75 27h-2.5A2.25 2.25 0 0 1 5 24.75v-9.5A2.25 2.25 0 0 1 7.25 13h2.5A2.25 2.25 0 0 1 12 15.25v9.5A2.25 2.25 0 0 1 9.75 27zm9 0h-2.5A2.25 2.25 0 0 1 14 24.75v-12.5A2.25 2.25 0 0 1 16.25 10h2.5A2.25 2.25 0 0 1 21 12.25v12.5A2.25 2.25 0 0 1 18.75 27zm8.977 0h-2.5a2.25 2.25 0 0 1-2.25-2.25V8.25A2.25 2.25 0 0 1 25.227 6h2.5a2.25 2.25 0 0 1 2.25 2.25v16.5a2.25 2.25 0 0 1-2.25 2.25z"/></svg>