<svg xmlns="http://www.w3.org/2000/svg" width="40" height="40" fill="none"><path d="M32.374 7.636A17.5 17.5 0 0 0 19.982 2.45 17.5 17.5 0 0 0 7.565 7.575a17.5 17.5 0 0 0-5.126 12.417 17.5 17.5 0 0 0 5.187 12.392 17.5 17.5 0 0 0 12.392 5.187 17.5 17.5 0 0 0 12.417-5.126 17.5 17.5 0 0 0 5.126-12.417 17.5 17.5 0 0 0-5.187-12.392zM5 20.011a14.97 14.97 0 0 1 .523-3.93c.573 1.234 1.406 2.301 1.973 3.567.732 1.628 2.698 1.177 3.566 2.603.77 1.266-.052 2.868.524 4.193.419.962 1.406 1.172 2.088 1.875.696.709.681 1.681.787 2.606a23.85 23.85 0 0 0 .582 3.224c0 .008 0 .016.006.024C9.203 32.12 5 26.547 5 20.011zm15 15a15.09 15.09 0 0 1-2.5-.209c.009-.212.012-.409.034-.547.19-1.242.812-2.457 1.651-3.387.829-.917 1.965-1.537 2.665-2.578.686-1.016.891-2.383.609-3.57-.416-1.753-2.798-2.338-4.083-3.289-.738-.547-1.395-1.392-2.365-1.461-.447-.031-.821.065-1.264-.049-.406-.105-.725-.324-1.158-.267-.809.106-1.319.97-2.187.853-.824-.11-1.673-1.075-1.861-1.86-.241-1.009.558-1.337 1.413-1.427.357-.037.758-.078 1.101.053.452.167.665.609 1.07.833.76.417.914-.249.798-.924-.174-1.011-.377-1.423.524-2.119.625-.48 1.159-.827 1.059-1.688-.059-.506-.337-.735-.078-1.239.196-.384.734-.73 1.085-.959.906-.591 3.879-.547 2.664-2.2-.357-.485-1.016-1.352-1.641-1.471-.781-.148-1.128.724-1.673 1.109-.562.398-1.658.849-2.221.234-.758-.827.502-1.098.781-1.677.129-.27 0-.644-.217-.996.282-.119.568-.229.859-.33a1.22 1.22 0 0 0 .625.234c.523.034 1.016-.248 1.472.108.506.391.871.884 1.543 1.006.65.118 1.338-.261 1.499-.927.098-.405 0-.832-.094-1.25a14.91 14.91 0 0 1 8.203 2.516c-.156-.059-.343-.052-.573.055-.474.22-1.146.781-1.201 1.337-.063.631.868.72 1.31.72.664 0 1.337-.297 1.123-1.064-.093-.333-.22-.679-.423-.888.49.34.96.709 1.406 1.105l-.021.021c-.45.469-.973.84-1.281 1.41a1.23 1.23 0 0 1-.901.696c-.242.057-.519.078-.722.241-.566.445-.244 1.516.292 1.837.677.406 1.682.215 2.193-.364.399-.453.634-1.24 1.352-1.239.316-.001.62.123.845.345.297.308.238.595.302.98.112.683.714.313 1.08-.032.267.475.508.965.722 1.466-.403.58-.723 1.213-1.693.537-.581-.405-.938-.994-1.667-1.177-.637-.156-1.289.006-1.918.115-.715.124-1.562.179-2.105.72-.524.522-.802 1.22-1.359 1.745-1.079 1.016-1.534 2.124-.836 3.56.672 1.38 2.077 2.13 3.594 2.031 1.49-.099 3.038-.963 2.995 1.202-.016.766.145 1.297.38 2.009.218.656.203 1.292.253 1.97.047.793.171 1.58.37 2.349A14.98 14.98 0 0 1 20 35.011z" fill="#3671e9"/></svg>