<svg xmlns="http://www.w3.org/2000/svg" width="40" height="40" fill="#3671e9"><path d="M25.988 5.045C24.467 3.404 22.344 2.5 20 2.5c-2.356 0-4.487.898-6 2.53-1.53 1.649-2.275 3.891-2.1 6.311C12.247 16.116 15.881 20 20 20s7.747-3.884 8.099-8.658c.177-2.398-.573-4.635-2.112-6.297zM33.75 37.5H6.25a2.42 2.42 0 0 1-1.891-.87c-.508-.607-.713-1.436-.561-2.274.659-3.658 2.717-6.73 5.952-8.888C12.623 23.554 16.263 22.5 20 22.5s7.377 1.055 10.25 2.969c3.234 2.156 5.292 5.229 5.952 8.887.151.838-.053 1.667-.561 2.274a2.42 2.42 0 0 1-.847.649 2.426 2.426 0 0 1-1.044.222z"/></svg>