<svg xmlns="http://www.w3.org/2000/svg" xmlns:xlink="http://www.w3.org/1999/xlink" width="604" height="586" fill="none"><style>.B{opacity:.3}.C{opacity:.2}.D{fill:#0f054c}.E{opacity:.05}.F{opacity:.4}.G{opacity:.5}.H{fill:#91a2fa}.I{fill:#42e8e0}.J{fill:#97a6fc}</style><g class="B"><path d="M603.934 556.146v-8.709l-2.39-1.342c-.68 4.102-5.518 6.824-9.579 7.387l-27.533 16.116-12.009 4.335-38.375-19.809.893-.505c-3.283-1.536-5.052-5.035-6.82-8.243l-2.584 1.536-1.535.447v8.923a5.84 5.84 0 0 0 1.06 2.813 5.836 5.836 0 0 0 2.321 1.911l38.492 22.2a18.147 18.147 0 0 0 8.161 1.94 18.14 18.14 0 0 0 8.161-1.94l38.434-22.2a5.837 5.837 0 0 0 2.287-1.873 5.83 5.83 0 0 0 1.075-2.754 1.01 1.01 0 0 0 0-.233h-.059z" fill="url(#A)" class="B"/><path d="m591.964 553.482-27.533 16.116-10.454 3.772v11.78a16.65 16.65 0 0 0 8.161-1.944l38.434-22.2a5.837 5.837 0 0 0 2.287-1.873 5.83 5.83 0 0 0 1.075-2.754.91.91 0 0 0 0-.233v-8.709l-2.196-1.225h-.233c-.738 4.043-5.518 6.629-9.541 7.27z" class="B D"/><use xlink:href="#j" fill="url(#B)" class="B"/><use xlink:href="#j" opacity=".09" class="D"/></g><g class="I"><path d="M553.977 546.29a14.927 14.927 0 0 1-7.247-1.73l-38.434-22.201a4.65 4.65 0 0 1-3.106-4.384 4.65 4.65 0 0 1 .855-2.686 4.644 4.644 0 0 1 2.251-1.697l38.434-22.201a16.09 16.09 0 0 1 14.476 0l38.453 22.201a4.637 4.637 0 0 1 2.25 1.697 4.64 4.64 0 0 1 0 5.373 4.643 4.643 0 0 1-2.25 1.697l-38.434 22.201a14.93 14.93 0 0 1-7.248 1.73zm0-55.949a14.27 14.27 0 0 0-6.917 1.633l-38.434 22.201a4 4 0 0 0-1.984 1.457 4.005 4.005 0 0 0-.757 2.343 4.01 4.01 0 0 0 .757 2.344 4 4 0 0 0 1.984 1.457l38.434 22.2a15.31 15.31 0 0 0 6.908 1.648c2.399 0 4.766-.565 6.907-1.648l38.434-22.239a4.004 4.004 0 0 0 0-7.601l-38.434-22.201a14.243 14.243 0 0 0-6.898-1.594z"/><path d="M603.934 509.451V496.29l-2.39-1.341c-.68 4.121-5.518 6.823-9.579 7.387l-27.533 16.116-12.009 4.335-38.375-19.81.893-.505c-3.283-1.536-5.052-5.035-6.82-8.243l-2.584 1.536-1.535.447v13.375a5.84 5.84 0 0 0 1.06 2.813 5.836 5.836 0 0 0 2.321 1.911l38.492 22.2a18.03 18.03 0 0 0 16.322 0l38.434-22.2a5.837 5.837 0 0 0 2.287-1.873 5.83 5.83 0 0 0 1.075-2.754 1.01 1.01 0 0 0 0-.233h-.059z" class="F"/></g><path d="M603.934 497.748v-8.709l-2.39-1.342c-.68 4.122-5.518 6.824-9.579 7.388L564.432 511.2l-12.009 4.335-38.375-19.809.893-.505c-3.283-1.536-5.052-5.035-6.82-8.243l-2.584 1.555-1.535.428v8.923a5.84 5.84 0 0 0 1.06 2.813 5.836 5.836 0 0 0 2.321 1.911l38.492 22.2a18.03 18.03 0 0 0 16.322 0l38.434-22.2a5.837 5.837 0 0 0 2.287-1.873 5.83 5.83 0 0 0 1.075-2.754 1.01 1.01 0 0 0 0-.233h-.059z" fill="url(#C)"/><path d="M591.964 495.084 564.431 511.2l-10.454 3.771v11.781a16.673 16.673 0 0 0 8.161-1.944l38.434-22.201a5.826 5.826 0 0 0 3.362-4.626.916.916 0 0 0 0-.234v-8.709l-2.196-1.225h-.233c-.738 4.044-5.518 6.707-9.541 7.271z" class="B D"/><path d="m545.876 515.904-38.434-22.2c-4.508-2.605-4.508-6.843 0-9.429l38.434-22.142a18.027 18.027 0 0 1 16.322 0l38.434 22.201c4.488 2.585 4.488 6.823 0 9.428l-38.493 22.142a18.135 18.135 0 0 1-16.263 0z" fill="url(#D)"/><path d="m600.572 493.763-38.434 22.142a18.146 18.146 0 0 1-16.322 0l-38.434-22.2a6.076 6.076 0 0 1-3.342-4.18c-.272 1.944.855 3.888 3.342 5.249l38.492 22.259a18.027 18.027 0 0 0 16.322 0l38.434-22.201a5.41 5.41 0 0 0 3.323-5.249 6.11 6.11 0 0 1-1.206 2.483 6.104 6.104 0 0 1-2.175 1.697z" fill="#fff"/><path d="m534.677 488-87.424-52.317-27.795 16.035h-.323L365 419.81l.323-.81 54.135 31.746 27.795-16.035.646.324L535 487.19l-.323.81z" fill="url(#E)"/><g class="B"><path d="M100 555.204v-8.71l-2.411-1.341c-.68 4.121-5.521 6.824-9.564 7.387l-27.566 16.116-12.014 4.335-38.394-19.809.894-.506c-3.285-1.535-5.054-5.035-6.823-8.242l-2.585 1.555-1.536.428v8.923a5.84 5.84 0 0 0 1.061 2.813 5.83 5.83 0 0 0 2.321 1.911l38.452 22.2a18.041 18.041 0 0 0 16.33 0l38.452-22.2a5.83 5.83 0 0 0 3.383-4.627v-.233z" fill="url(#F)" class="B"/><path d="m88.024 552.578-27.566 16.116-10.459 3.772v11.78c2.843.059 5.653-.61 8.165-1.944l38.452-22.2a5.84 5.84 0 0 0 2.299-1.869 5.834 5.834 0 0 0 1.084-2.758v-8.942l-2.216-1.225h-.233c-.739 4.005-5.521 6.668-9.526 7.27z" class="B D"/><path d="M41.835 573.419 3.383 551.218c-4.51-2.605-4.51-6.843 0-9.428l38.452-22.259a18.044 18.044 0 0 1 16.33 0l38.452 22.2c4.491 2.586 4.491 6.824 0 9.429l-38.452 22.259a18.16 18.16 0 0 1-16.33 0z" fill="url(#G)" class="B"/><path opacity=".09" d="M41.835 573.419 3.383 551.218c-4.51-2.605-4.51-6.843 0-9.428l38.452-22.259a18.041 18.041 0 0 1 16.33 0l38.452 22.2c4.491 2.586 4.491 6.824 0 9.429l-38.452 22.259a18.16 18.16 0 0 1-16.33 0z" class="D"/></g><g class="I"><path d="M50 541.11a14.71 14.71 0 0 1-7.251-1.731l-38.452-22.2a4.65 4.65 0 0 1-2.232-1.7 4.647 4.647 0 0 1 2.232-7.048l38.452-22.201a16.026 16.026 0 0 1 14.502 0l38.452 22.201a4.646 4.646 0 0 1 2.232 7.048 4.65 4.65 0 0 1-2.232 1.7l-38.452 22.2A14.713 14.713 0 0 1 50 541.11zm-6.921-2.314a15.32 15.32 0 0 0 13.822 0l38.452-22.2a3.89 3.89 0 0 0 2.175-1.367 3.888 3.888 0 0 0 .849-2.424 3.89 3.89 0 0 0-3.024-3.791l-38.452-22.2a15.19 15.19 0 0 0-13.822 0l-38.452 22.2a3.885 3.885 0 0 0-2.175 1.366 3.89 3.89 0 0 0-.849 2.425c0 .881.299 1.736.849 2.424a3.89 3.89 0 0 0 2.175 1.367l38.452 22.2z"/><path d="M100 504.29v-13.18l-2.411-1.342c-.68 4.122-5.521 6.824-9.564 7.387l-27.566 16.116-12.014 4.316-38.394-19.809.894-.506c-3.285-1.536-5.054-5.035-6.823-8.242l-2.585 1.555-1.536.427v13.395a5.708 5.708 0 0 0 3.383 4.704l38.452 22.201a18.04 18.04 0 0 0 16.33 0l38.452-22.201a5.84 5.84 0 0 0 2.299-1.869 5.83 5.83 0 0 0 1.084-2.758v-.233.039z" class="F"/></g><path d="M100 492.568v-8.709l-2.411-1.342c-.68 4.121-5.521 6.824-9.564 7.387L60.459 506.02l-12.014 4.335-38.394-19.809.894-.506c-3.285-1.535-5.054-5.034-6.823-8.223l-2.585 1.536-1.536.428v8.942a5.83 5.83 0 0 0 1.066 2.802 5.84 5.84 0 0 0 2.317 1.903l38.452 22.2a18.044 18.044 0 0 0 16.33 0l38.452-22.2a5.84 5.84 0 0 0 2.299-1.869 5.834 5.834 0 0 0 1.084-2.758v-.233z" fill="url(#H)"/><path d="M41.835 510.783 3.383 488.582c-4.51-2.605-4.51-6.843 0-9.428l38.452-22.201a18.04 18.04 0 0 1 16.33 0l38.452 22.201c4.491 2.605 4.491 6.823 0 9.428l-38.452 22.201a18.04 18.04 0 0 1-16.33 0z" fill="url(#I)"/><path d="M50 506.739a13.32 13.32 0 0 1-6.551-1.555l-30.035-17.341a4.218 4.218 0 0 1-2.035-1.542 4.22 4.22 0 0 1 0-4.867 4.23 4.23 0 0 1 2.035-1.542l30.035-17.34a14.43 14.43 0 0 1 13.103 0l30.035 17.34a4.23 4.23 0 0 1 2.035 1.542 4.22 4.22 0 0 1 0 4.867 4.213 4.213 0 0 1-2.035 1.542l-30.035 17.341A13.32 13.32 0 0 1 50 506.739zm-6.221-2.138a13.71 13.71 0 0 0 12.422 0l30.054-17.341a3.56 3.56 0 0 0 2.486-3.392 3.56 3.56 0 0 0-.688-2.103 3.55 3.55 0 0 0-1.798-1.289l-30.054-17.322a13.71 13.71 0 0 0-12.422 0l-30.035 17.341a4.15 4.15 0 0 0-1.694 1.356 4.134 4.134 0 0 0-.775 2.027 4.2 4.2 0 0 0 .778 2.032 4.21 4.21 0 0 0 1.691 1.37l30.035 17.321z" fill="#5351af"/><path d="m96.617 488.583-38.452 22.2a18.041 18.041 0 0 1-16.33 0l-38.452-22.2a6.079 6.079 0 0 1-2.156-1.703 6.08 6.08 0 0 1-1.188-2.477 5.48 5.48 0 0 0 3.344 5.268l38.452 22.201a18.16 18.16 0 0 0 16.33 0l38.452-22.201a5.44 5.44 0 0 0 2.49-2.111 5.444 5.444 0 0 0 .834-3.157 6.06 6.06 0 0 1-1.177 2.475 6.065 6.065 0 0 1-2.147 1.705z" fill="#fff"/><path d="m54.709 503.441 87.13-50.133 27.884 15.044.323-.002 53.956-30.582-.328-.766-53.956 30.428-27.884-15.044-.645.311-86.807 49.978.328.766z" fill="url(#J)"/><g class="B"><path d="M602.903 202.896v-8.709l-2.408-1.342c-.68 4.102-5.516 6.824-9.555 7.387l-27.54 16.097-12.002 4.354-38.357-19.809.893-.525c-3.282-1.516-5.049-5.035-6.817-8.223l-2.583 1.536-1.534.427v8.943a5.697 5.697 0 0 0 3.379 4.704l38.416 22.201a18.007 18.007 0 0 0 16.314 0l38.415-22.201a5.828 5.828 0 0 0 3.379-4.626v-.214z" fill="url(#K)" class="B"/><path d="M590.939 200.232 563.4 216.329l-10.449 3.79V231.9a16.65 16.65 0 0 0 8.157-1.944l38.415-22.2a5.84 5.84 0 0 0 3.38-4.627v-8.923l-2.195-1.225h-.233c-.777 4.024-5.535 6.688-9.536 7.251z" class="B D"/><use xlink:href="#k" fill="url(#L)" class="B"/><use xlink:href="#k" opacity=".09" class="D"/></g><g class="I"><path d="M552.953 194.498a14.92 14.92 0 0 1-7.245-1.73l-38.415-22.201a4.645 4.645 0 0 1-2.249-1.697 4.65 4.65 0 0 1 0-5.373 4.64 4.64 0 0 1 2.249-1.697l38.415-22.201a16.107 16.107 0 0 1 14.489 0l38.415 22.201a4.64 4.64 0 0 1 2.249 1.697 4.65 4.65 0 0 1 0 5.373 4.645 4.645 0 0 1-2.249 1.697l-38.415 22.201a14.92 14.92 0 0 1-7.244 1.73zm0-55.968a14.19 14.19 0 0 0-6.895 1.652l-38.435 22.201a4.004 4.004 0 0 0-2.74 3.8 4.01 4.01 0 0 0 .757 2.344 4.004 4.004 0 0 0 1.983 1.457l38.435 22.2a15.296 15.296 0 0 0 13.809 0l38.415-22.2a4 4 0 0 0 1.983-1.457 4.01 4.01 0 0 0 .757-2.344c0-.841-.265-1.661-.757-2.343a4 4 0 0 0-1.983-1.457l-38.415-22.201a14.266 14.266 0 0 0-6.914-1.652z"/><path d="M602.903 157.659v-13.161l-2.408-1.342c-.68 4.102-5.516 6.824-9.555 7.388l-27.54 16.115-12.002 4.413-38.357-19.809.893-.506c-3.282-1.535-5.049-5.035-6.817-8.242l-2.583 1.536-1.534.447v13.375a5.837 5.837 0 0 0 3.476 4.646l38.319 22.161a18.01 18.01 0 0 0 8.157 1.954c2.834 0 5.629-.67 8.157-1.954l38.415-22.2a5.83 5.83 0 0 0 3.379-4.627v-.233.039z" class="F"/></g><path d="M602.903 145.956v-8.709l-2.408-1.342c-.68 4.102-5.516 6.824-9.555 7.387l-27.54 16.116-12.002 4.335-38.357-19.887.893-.505c-3.282-1.536-5.049-5.035-6.817-8.243l-2.583 1.536-1.534.447v8.923a5.84 5.84 0 0 0 1.06 2.813 5.83 5.83 0 0 0 2.319 1.911l38.416 22.278a18.127 18.127 0 0 0 8.157 1.94 18.13 18.13 0 0 0 8.157-1.94l38.415-22.2a5.83 5.83 0 0 0 3.379-4.627v-.233z" fill="url(#M)"/><path d="M590.939 143.293 563.4 159.409l-10.449 3.771v11.781a16.66 16.66 0 0 0 8.157-1.944l38.415-22.201a5.84 5.84 0 0 0 3.38-4.626v-8.943l-2.195-1.225h-.233c-.777 4.044-5.535 6.707-9.536 7.271z" class="B D"/><path d="m513.934 143.428 36.415-20.956a5.82 5.82 0 0 1 5.224 0l35.755 20.665-.388.233c4.039-.564 8.875-3.286 9.555-7.387l-40.144-22.356-11.653-3.091-9.516 5.598-32.045 19.129c1.748 3.13 3.515 6.649 6.797 8.165z" fill="url(#N)"/><path d="m552.951 111.605-4.272-1.147-9.517 5.599-32.045 19.129c1.767 3.207 3.535 6.707 6.817 8.242l36.415-20.956a5.166 5.166 0 0 1 2.602-.642v-10.225z" class="B D"/><path d="m544.794 164.152-38.318-22.24c-4.506-2.585-4.506-6.823 0-9.428l38.415-22.201a18.13 18.13 0 0 1 8.157-1.939c2.833 0 5.627.664 8.157 1.939l38.416 22.201c4.506 2.605 4.506 6.843 0 9.428l-38.416 22.201a18 18 0 0 1-8.2 1.997 18.013 18.013 0 0 1-8.211-1.958zm10.779-50.544a5.82 5.82 0 0 0-5.224 0l-38.416 22.2a1.594 1.594 0 0 0 0 3.033l38.416 22.2a5.82 5.82 0 0 0 5.224 0l38.416-22.2c.311-.113.579-.32.769-.591a1.61 1.61 0 0 0 0-1.851 1.613 1.613 0 0 0-.769-.591l-38.416-22.2z" fill="url(#O)"/><path d="m593.988 135.73-38.415-22.2a5.826 5.826 0 0 0-2.613-.619 5.82 5.82 0 0 0-2.612.619l-38.415 22.2c-.971.564-1.282 1.341-.971 2.061.219-.414.557-.753.971-.972l38.415-22.123a5.825 5.825 0 0 1 2.612-.619 5.83 5.83 0 0 1 2.613.619l38.415 22.201a2.27 2.27 0 0 1 .952.972c.31-.798 0-1.575-.952-2.139zm5.537 6.182-38.415 22.2a18 18 0 0 1-8.157 1.954c-2.835 0-5.63-.669-8.157-1.954l-38.319-22.2a6.016 6.016 0 0 1-2.155-1.69 6.03 6.03 0 0 1-1.185-2.47 5.47 5.47 0 0 0 .851 3.147 5.456 5.456 0 0 0 2.489 2.102l38.319 22.239a18.007 18.007 0 0 0 8.157 1.953 18.01 18.01 0 0 0 8.157-1.953l38.415-22.201a5.456 5.456 0 0 0 2.49-2.101 5.47 5.47 0 0 0 .851-3.147 6.034 6.034 0 0 1-3.341 4.121z" fill="#fff"/><path d="m545.882 163.53-38.416-22.201c-3.884-2.255-3.884-5.832 0-8.165l38.416-22.2a15.513 15.513 0 0 1 14.138 0l38.416 22.2c3.884 2.255 3.884 5.832 0 8.165L560.02 163.53a15.526 15.526 0 0 1-14.138 0zm10.759-50.544a8.08 8.08 0 0 0-7.38 0l-38.415 22.122a2.26 2.26 0 0 0-1.538 2.139 2.255 2.255 0 0 0 1.538 2.138l38.357 22.201a8.236 8.236 0 0 0 7.38 0l38.435-22.201a2.25 2.25 0 0 0 1.113-.821c.276-.384.424-.844.424-1.317a2.26 2.26 0 0 0-.424-1.318 2.256 2.256 0 0 0-1.113-.821l-38.377-22.122z" fill="url(#P)"/><path d="M555.574 113.53a5.82 5.82 0 0 0-5.224 0l-38.415 22.2a1.593 1.593 0 0 0-.797 2.454c.198.273.476.475.797.579l38.415 22.2a5.82 5.82 0 0 0 5.224 0l38.416-22.2c.311-.113.579-.32.769-.591a1.61 1.61 0 0 0 0-1.851 1.613 1.613 0 0 0-.769-.591l-38.416-22.2z" class="F I"/><path d="m526.594 181.78-89.02 49.553-.01 32.088-.162.28-54.701 30.928-.539-.685 54.56-31.009.011-32.088.604-.398 88.717-49.354.54.685z" fill="url(#Q)"/><g fill="#758ef5"><path d="m471.023 322.296 15.063 8.719v34.815l-15.063-8.704v-34.83z" class="G"/><path d="m455.961 331.015 15.063 8.704v17.407l-15.063-8.703v-17.408z" class="C"/><path d="m440.897 270.059 15.063 8.719v69.645l-15.063-8.704v-69.66z" class="G"/><path d="m425.819 243.948 15.078 8.704v87.067l-15.078-8.704v-87.067z" class="C"/><path d="m410.757 252.652 15.062 8.703v69.66l-15.062-8.719v-69.644z" class="G"/><path d="m395.693 191.711 15.063 8.704v121.881l-15.063-8.704V191.711z" class="C"/><path d="m380.632 200.415 15.062 8.704v104.474l-15.062-8.704V200.415z" class="G"/><path d="m365.569 209.118 15.063 8.704v87.066l-15.063-8.703v-87.067z" class="C"/><path d="m350.492 165.585 15.078 8.719v121.882l-15.078-8.704V165.585z" class="G"/><path d="m335.429 122.067 15.062 8.703v156.712l-15.062-8.72V122.067z" class="C"/><path d="m320.366 130.771 15.063 8.703v139.289l-15.063-8.704V130.771z" class="G"/><path d="m305.304 87.237 15.062 8.704V270.06l-15.062-8.704V87.237z" class="C"/><path d="m290.225 78.533 15.078 8.704v174.118l-15.078-8.703V78.533z" class="G"/><path d="m275.163 35 15.063 8.704v208.948l-15.063-8.704V35z" class="C"/></g><path d="M289.96 495c76.216 0 138.002-35.704 138.002-79.746s-61.786-79.747-138.002-79.747-138.001 35.704-138.001 79.747S213.744 495 289.96 495z" class="D F"/><path d="M289.961 463.294c86.747 0 157.07-40.637 157.07-90.766s-70.323-90.766-157.07-90.766-157.07 40.637-157.07 90.766 70.322 90.766 157.07 90.766z" fill="url(#R)"/><path opacity=".48" d="M447.047 342.641h-3.882c-6.305-16.164-20.342-31.535-42.129-44.108-61.337-35.452-160.797-35.452-222.057 0-20.575 11.889-34.162 26.25-41.01 41.435h-4.923v20.127c-1.226 24.106 14.085 48.445 45.933 66.831 61.338 35.436 160.797 35.436 222.135 0 30.668-17.734 46.011-40.954 46.011-64.189l-.078-20.096z" fill="url(#S)"/><path opacity=".48" d="m443.165 334.838-.699-1.678v-13.227h-8.23v-.948a83.843 83.843 0 0 0-6.987-8.221v9.169h-4.659V306.21a105.533 105.533 0 0 0-7.019-5.844v19.599h-4.658v-23.081a153.15 153.15 0 0 0-7.05-4.569v27.572h-4.659V289.58a146.557 146.557 0 0 0-7.065-3.73v34.037h-4.659v-36.198l-7.081-3.108v39.306h-4.658v-31.784h-7.097v31.83h-4.658v-23.049h-7.128v23.096H352.2v-14.361h-7.143v14.361h-4.566v-5.611h-7.096v5.611h-86.742v-5.611h-7.174v5.611h-4.566v-14.361h-7.112v14.361h-4.658v-23.096h-7.128v23.096h-4.658v-31.877h-7.097v31.83h-4.658v-39.337c-2.392.974-4.752 2.01-7.081 3.109v36.275h-4.659v-34.115a159.656 159.656 0 0 0-7.065 3.715v30.353h-4.659v-27.618a123.127 123.127 0 0 0-7.05 4.554v23.064h-4.658v-19.645c-2.5 1.896-4.83 3.855-7.019 5.844v13.801h-4.659v-9.325a88.56 88.56 0 0 0-6.988 8.206v1.042h-8.23v12.2h-3.493v33.742a60.886 60.886 0 0 0 6.972 17.905v-21.029h4.751v28.24a84.03 84.03 0 0 0 6.988 8.191v-36.431h4.659v41a111.41 111.41 0 0 0 7.019 5.829v-46.829h4.658v50.248a153.59 153.59 0 0 0 7.05 4.569v-54.817h4.659v57.506a180.51 180.51 0 0 0 7.065 3.715v-61.221h4.659v63.459l7.081 3.108v-66.52h4.658v68.385c2.329.886 4.659 1.725 7.097 2.534v-70.966h4.658v72.333c2.361.731 4.659 1.415 7.128 2.067v-74.4h4.658v75.644l7.143 1.647v-77.244h4.566v78.192c2.376.467 4.767.886 7.174 1.29v-79.529h4.55v80.182c2.376.358 4.782.668 7.189.964v-81.146h4.519v81.643l7.221.622v-82.265h4.488v82.56l7.251.311v-82.871h4.473v82.964h7.313v-82.964h4.473v82.871c2.422 0 4.829-.187 7.251-.311v-82.56h4.488v82.265l7.221-.638v-81.627h4.519v81.13a267.51 267.51 0 0 0 7.189-.948v-80.182h4.566v79.467c2.407-.388 4.798-.824 7.174-1.29v-78.177h4.565v77.198l7.143-1.663v-75.535h4.659v74.385l7.127-2.067v-72.318h4.659V433.5c2.391-.793 4.767-1.555 7.096-2.518v-68.308h4.659v66.489c2.391-.979 4.752-1.989 7.081-3.108v-63.381h4.658v61.221a179.843 179.843 0 0 0 7.066-3.715v-57.506h4.658v54.786a135.038 135.038 0 0 0 7.05-4.585v-50.201h4.659v46.782a119.58 119.58 0 0 0 7.019-5.844v-40.938h4.658v36.384a82.11 82.11 0 0 0 6.988-8.221v-28.163h4.674v20.967a60.31 60.31 0 0 0 6.972-18.076v-30.711l-2.795-.016z" fill="url(#T)"/><path d="M289.961 425.636c86.747 0 157.07-40.638 157.07-90.766s-70.323-90.766-157.07-90.766-157.07 40.637-157.07 90.766 70.322 90.766 157.07 90.766z" fill="url(#U)"/><path d="M290.023 244.041c-35.591 0-71.182 6.948-100.158 20.827L143 366.824c7.64 11.734 19.581 22.723 35.902 32.157a177.245 177.245 0 0 0 33.184 14.64l77.937-169.58zm44.007 3.699-80.624 175.409a271.157 271.157 0 0 0 58.791 1.554l74.21-161.467a214.334 214.334 0 0 0-52.377-15.496z" class="B H"/><g class="E"><path d="M289.961 415.254c76.825 0 139.104-35.989 139.104-80.384s-62.279-80.384-139.104-80.384-139.104 35.989-139.104 80.384 62.279 80.384 139.104 80.384z" fill="url(#V)" class="E"/><g class="E H"><path d="m41.491 334.528-1.491-.87 242.337-140.035 1.491.87L41.491 334.528zm4.27 2.455-1.491-.855 242.337-140.034 1.491.855L45.761 336.983zm4.271 2.472-1.491-.855 242.337-140.034 1.491.854L50.032 339.455zm4.27 2.471-1.491-.855 242.337-140.034 1.491.854L54.302 341.926zm4.27 2.471-1.491-.87 242.337-140.035 1.491.871L58.572 344.397zm4.27 2.456-1.491-.855 242.336-140.035 1.491.855L62.842 346.853zm4.271 2.471-1.491-.855 242.337-140.035 1.475.855L67.113 349.324zm4.27 2.471-1.491-.855 242.336-140.034 1.476.855L71.383 351.795zm4.27 2.472-1.491-.871 242.336-140.034 1.476.855-242.322 140.05zm4.271 2.455-1.491-.855L320.77 215.833l1.475.855L79.924 356.722zm4.254 2.471-1.475-.855L325.04 218.304l1.475.855L84.178 359.193zm4.271 2.471-1.475-.854 242.337-140.035 1.475.855L88.449 361.664zm4.27 2.456-1.475-.855L333.581 223.23l1.475.855L92.719 364.12zm4.271 2.471-1.475-.855 242.337-140.034 1.475.855L96.99 366.591zm4.27 2.471-1.475-.855 242.337-140.034 1.475.855L101.26 369.062zm4.271 2.471-1.491-.854 242.337-140.05 1.491.87-242.337 140.034zm4.27 2.472-1.491-.87L350.647 233.1l1.491.855-242.337 140.05zm4.27 2.456-1.49-.855 242.336-140.034 1.491.854-242.337 140.035zm4.27 2.471-1.49-.855 242.336-140.035 1.491.855-242.337 140.035zm4.271 2.471-1.491-.87 242.337-140.035 1.491.87-242.337 140.035zm4.27 2.455-1.49-.855 242.336-140.034 1.491.855-242.337 140.034zm4.27 2.472-1.49-.855L371.998 245.44l1.491.855L131.152 386.33z" class="E"/><use xlink:href="#l" class="E"/><path d="m139.693 391.272-1.491-.855 242.337-140.05 1.491.871-242.337 140.034zm4.27 2.455-1.49-.854L384.81 252.838l1.49.855-242.337 140.034zm4.271 2.471-1.491-.854L389.08 255.309l1.475.855-242.321 140.034zm4.27 2.472-1.49-.855 242.337-140.034 1.475.854L152.504 398.67zm4.255 2.471-1.475-.87 242.337-140.035 1.475.871-242.337 140.034zm4.27 2.456-1.475-.855 242.337-140.034 1.475.854-242.337 140.035zm4.27 2.471-1.475-.855 242.337-140.035 1.475.855-242.337 140.035zm4.271 2.471-1.475-.855 242.337-140.035 1.475.855L169.57 408.539zm4.27 2.471-1.475-.87 242.337-140.034 1.475.855L173.84 411.01zm4.27 2.456-1.475-.855 242.322-140.034 1.49.854L178.11 413.466zm4.27 2.471-1.475-.854 242.337-140.035 1.475.855L182.38 415.937zm4.271 2.472-1.475-.855 242.321-140.05 1.491.87-242.337 140.035zm4.27 2.471-1.475-.871 242.322-140.034 1.49.87L190.921 420.88z" class="E"/><use xlink:href="#l" x="59.769" y="34.534" class="E"/><path d="m199.462 425.807-1.49-.855 242.337-140.034 1.49.855-242.337 140.034zm4.271 2.471-1.491-.855 242.337-140.05 1.491.87-242.337 140.035zm4.269 2.471-1.49-.87 242.337-140.035 1.49.871-242.337 140.034zm4.271 2.455-1.491-.854 242.337-140.035 1.491.855-242.337 140.034zm4.271 2.471-1.49-.854 242.337-140.035 1.49.855-242.337 140.034zm4.27 2.472-1.491-.854L461.66 297.258l1.491.855-242.337 140.034zm4.27 2.472-1.49-.871 242.337-140.034 1.49.855-242.337 140.05z" class="E"/><use xlink:href="#l" x="93.932" y="54.273" class="E"/><path d="m233.626 445.545-1.491-.855 242.337-140.034 1.49.855-242.336 140.034zm4.269 2.471-1.491-.855 242.337-140.05 1.491.871-242.337 140.034zm4.271 2.456-1.491-.855 242.337-140.035 1.475.855-242.321 140.035zm4.27 2.471-1.491-.854 242.337-140.035 1.475.855-242.321 140.034zm4.254 2.471-1.475-.854 242.337-140.035 1.475.855L250.69 455.414zm4.271 2.472-1.476-.855 242.337-140.05 1.475.87-242.336 140.035zm4.271 2.455-1.475-.855 242.337-140.034 1.475.855-242.337 140.034zm4.271 2.471-1.476-.855 242.337-140.034 1.475.855-242.336 140.034zm4.269 2.472-1.475-.855 242.337-140.034 1.475.855-242.337 140.034zm4.27 2.471-1.491-.87 242.337-140.034 1.49.87-242.336 140.034zm4.27 2.456-1.491-.855 242.337-140.035 1.491.855-242.337 140.035zm4.271 2.47-1.491-.854 242.337-140.035 1.49.855-242.336 140.034zm4.269 2.472-1.491-.855 242.337-140.034 1.491.854-242.337 140.035zm4.271 2.47-1.491-.87 242.337-140.034 1.49.87-242.336 140.034zm4.27 2.457-1.491-.855 242.337-140.034 1.491.855L293.393 480.08zm4.27 2.471-1.491-.855 242.337-140.034 1.49.855-242.336 140.034z" class="E"/></g></g><path d="M191.605 283.441c54.349-31.379 142.395-31.379 196.729 0 25.964 15.014 39.505 34.472 40.654 54.133 1.242-21.463-12.299-43.16-40.654-59.542-54.349-31.395-142.411-31.395-196.729 0-28.355 16.382-41.927 38.079-40.654 59.542 1.149-19.661 14.737-39.135 40.654-54.133z" fill="url(#W)"/><path d="M332.96 317.851a48.75 48.75 0 0 0-24.209 4.056c9.317-7.771 7.169-15.713-6.444-23.826l-1.01-.59a58.853 58.853 0 0 0-14.099-6.077 54.15 54.15 0 0 0-14.395-2.161c-4.653.03-9.285.636-13.79 1.803a92.904 92.904 0 0 0-7.205 2.145l-8.758-5.067-12.888 7.445 7.205 4.181a146.434 146.434 0 0 0-3.882 2.16l-4.659 2.736-7.143-4.135-12.889 7.445 7.144 4.134-8.898 5.145-3.479 2.02-.947.529-14.783 8.548 12.889 7.46 14.783-8.548 92.891 53.713-14.799 8.549 12.889 7.444 14.798-8.548 4.426-2.549 8.898-5.144 7.267 4.196 12.889-7.445-4.659-2.657-2.655-1.555 8.556-4.942 7.267 4.196 12.889-7.444-4.659-2.658-3.695-2.145c5.077-4.429 7.764-8.905 8.106-13.413.372-6.735-5.218-13.469-16.771-20.204l-.777-.467a62.94 62.94 0 0 0-25.404-8.33zm-86.525-3.015 4.146-2.409c10.27-5.927 20.105-6.186 29.505-.777 5.497 3.108 8.478 6.076 8.99 8.703s-2.065 5.58-7.764 8.844l-5.015 2.89-29.862-17.251zm82.798 47.838-35.669-20.562 5.156-2.984a30 30 0 0 1 16.398-4.663c5.114.249 11.015 2.321 17.702 6.217 5.963 3.451 9.183 6.637 9.659 9.559s-2.128 6.03-7.764 9.325l-5.482 3.108z" fill="url(#X)"/><path d="M208.717 297.506v8.269l7.143-4.134-7.143-4.135z" fill="url(#Y)"/><path d="M230.161 285.119v8.269l7.205-4.088-7.205-4.181z" fill="url(#Z)"/><path d="M314.45 301.656v9.822l-6.46-3.963 6.46-5.859z" fill="url(#a)"/><path d="M375.99 334.87v11.998l-9.69-5.999 9.69-5.999z" fill="url(#b)"/><path d="M332.96 307.391a48.76 48.76 0 0 0-24.209 4.057c9.317-7.771 7.169-15.718-6.444-23.842l-1.01-.575a58.933 58.933 0 0 0-14.099-6.077 53.53 53.53 0 0 0-14.395-2.16c-4.653.03-9.285.635-13.79 1.803a84.163 84.163 0 0 0-7.205 2.145l-8.758-5.067-12.888 7.444 7.205 4.181a143.72 143.72 0 0 0-3.882 2.161l-4.659 2.735-7.143-4.134-12.889 7.445 7.144 4.134-8.898 5.144-3.479 2.005-.947.544-14.783 8.548 12.889 7.46 14.783-8.548 92.969 53.714-14.799 8.548 12.889 7.445 14.798-8.548 4.426-2.549 8.898-5.145 7.267 4.197 12.888-7.445-4.658-2.658-2.655-1.554 8.556-4.942 7.267 4.196 12.889-7.445-4.659-2.657-3.696-2.145c5.078-4.43 7.765-8.906 8.106-13.413.373-6.735-5.217-13.47-16.771-20.205l-.776-.451a62.71 62.71 0 0 0-25.482-8.346zm-86.525-3.015 4.146-2.409c10.27-5.927 20.105-6.186 29.505-.777 5.497 3.108 8.478 6.077 8.991 8.704s-2.066 5.579-7.765 8.843l-5.015 2.891-29.862-17.252zm82.798 47.839-35.607-20.562 5.156-2.985a29.997 29.997 0 0 1 16.398-4.662c5.114.249 11.015 2.321 17.702 6.217 5.963 3.45 9.183 6.636 9.659 9.558s-2.127 6.03-7.764 9.325l-5.544 3.109z" fill="url(#c)"/><path d="M376.206 354.624v10.459l-12.889 7.445v-10.46l12.889-7.444z" fill="url(#d)"/><path d="M354.762 367.011v10.46l-12.889 7.444v-10.46l12.889-7.444z" fill="url(#e)"/><path d="M306.498 386.501v10.46l-12.904-7.445v-10.46l12.904 7.445z" fill="url(#f)"/><path d="M187.754 317.882v10.475l12.889 7.445v-10.46l-12.889-7.46z" fill="url(#g)"/><path d="M215.425 327.254v-10.46l-14.783 8.548v10.46l14.783-8.548z" fill="url(#h)"/><path d="M215.424 316.794v10.46l83.916 48.491 9.053-5.237-92.969-53.714z" fill="url(#i)"/><path d="M291.887 259.226a32.066 32.066 0 0 1-15.746-3.761c-4.379-2.518-6.786-5.937-6.786-9.605s2.407-7.072 6.786-9.605c8.681-5.005 22.812-5.005 31.508 0 4.363 2.533 6.77 5.953 6.77 9.605s-2.407 7.087-6.77 9.605a32.124 32.124 0 0 1-15.762 3.761zm0-25.023a30.603 30.603 0 0 0-14.892 3.559c-3.804 2.207-5.9 5.083-5.9 8.098s2.096 5.906 5.916 8.113c8.199 4.74 21.553 4.74 29.768 0 3.804-2.207 5.916-5.082 5.916-8.113s-2.112-5.891-5.916-8.098a30.556 30.556 0 0 0-14.892-3.559z" class="H"/><path d="M301.22 251.253a20.537 20.537 0 0 1-18.634 0c-5.155-2.969-5.155-7.771 0-10.771a20.556 20.556 0 0 1 9.317-2.234 20.55 20.55 0 0 1 9.317 2.234c5.14 2.969 5.14 7.802 0 10.771z" class="J"/><g class="H"><path d="m346.282 219.764-9.239-5.331 15.73-9.092 9.255 5.331-15.746 9.092z"/><path opacity=".8" d="m329.667 211.341-11.646-3.435 10.109-11.454 11.646 3.434-10.109 11.455z"/><path opacity=".6" d="m309.357 206.274-12.904-1.181 3.478-12.698 12.905 1.181-3.479 12.698z"/><path d="m287.337 205.093-12.92 1.181-3.479-12.698 12.905-1.181 3.494 12.698z" class="F"/><path d="m265.753 207.906-11.647 3.435-10.093-11.47 11.63-3.419 10.11 11.454z" class="C"/><path opacity=".1" d="m246.73 214.433-9.24 5.331-15.73-9.092 9.239-5.331 15.731 9.092z"/><path d="m315.444 234.141-3.246-1.881 23.479-13.568 3.246 1.88-23.479 13.569z" class="C"/><path d="m308.006 230.504-4.084-1.212L319 212.195l4.084 1.213-15.078 17.096z" class="F"/><path opacity=".6" d="m299.015 228.375-4.535-.42 5.187-18.945 4.534.419-5.186 18.946z"/><path opacity=".8" d="m289.31 227.955-4.535.42-5.202-18.946 4.535-.419 5.202 18.945z"/><path d="m279.853 229.292-4.084 1.212-15.079-17.096 4.1-1.213 15.063 17.097zm-8.262 2.968-3.246 1.881-23.479-13.569 3.246-1.88 23.479 13.568zm-6.289 4.29-2.081 2.362-29.581-8.719 2.08-2.362 29.582 8.719zm-3.681 5.206-.715 2.611-32.796-2.999.715-2.627 32.796 3.015zm-.715 5.596.715 2.626-32.796 3-.715-2.627 32.796-2.999zm2.315 5.471 2.081 2.362-29.582 8.704-2.08-2.363 29.581-8.703zm5.124 4.771 3.246 1.881-23.479 13.568-3.246-1.881 23.479-13.568z"/></g><path opacity=".6" d="M384.11 201.813c34.52 24.059 36.446 58.454 5.824 83.694l12.422 11.455c42.253-30.431 41.321-74.245-2.748-104.132l-15.498 8.983z" class="J"/><path d="M310.568 314.168c-36.507 3.31-75.173-3.109-103.295-19.397a94.38 94.38 0 0 1-17.081-12.433l-21.072 4.196a108.177 108.177 0 0 0 22.687 17.096c35.575 20.547 85.406 27.852 131.091 21.93l-12.33-11.392z" class="C H"/><g class="J"><path d="m151.852 257.47 21.072-4.196c-3.727-20.081 7.764-40.923 34.349-56.31 44.038-25.442 113.839-26.903 160.859-4.398l15.451-8.921c-55.577-27.416-139.182-25.956-191.73 4.414-32.75 18.915-46.073 44.808-40.001 69.411zm127.131 34.115-8.246-4.756L376.61 225.64l8.246 4.756-105.873 61.189z"/><path opacity=".8" d="m290.691 298.361-8.246-4.771 46.027-26.593 8.245 4.771-46.026 26.593z"/><path opacity=".6" d="m303.223 305.604-8.245-4.772 73.263-42.321 8.245 4.756-73.263 42.337z"/><path d="m315.568 312.722-8.261-4.756 57.036-32.949 8.245 4.756-57.02 32.949z" class="C"/></g><defs><linearGradient id="A" x1="513.95" y1="530.116" x2="593.266" y2="575.884" xlink:href="#m"><stop stop-color="#bcbeff"/><stop offset=".23" stop-color="#aaadf8"/><stop offset=".68" stop-color="#7c83e5"/><stop offset="1" stop-color="#5761d7"/></linearGradient><linearGradient id="B" x1="504.002" y1="547.437" x2="603.935" y2="547.437" xlink:href="#m"><stop stop-color="#e9e9fd"/><stop offset=".36" stop-color="#d3d2f9"/><stop offset=".71" stop-color="#c5c4f7"/><stop offset="1" stop-color="#c0bff6"/></linearGradient><linearGradient id="C" x1="52360" y1="9528.62" x2="54111.4" y2="12071" xlink:href="#m"><stop stop-color="#bcbeff"/><stop offset=".23" stop-color="#aaadf8"/><stop offset=".68" stop-color="#7c83e5"/><stop offset="1" stop-color="#5761d7"/></linearGradient><linearGradient id="D" x1="51817" y1="14075.8" x2="56956.7" y2="14075.8" xlink:href="#m"><stop stop-color="#e9e9fd"/><stop offset=".36" stop-color="#d3d2f9"/><stop offset=".71" stop-color="#c5c4f7"/><stop offset="1" stop-color="#c0bff6"/></linearGradient><linearGradient id="E" x1="364.959" y1="453.479" x2="535.052" y2="453.479" xlink:href="#m"><stop stop-color="#5778ff"/><stop offset=".104" stop-color="#567fff"/><stop offset=".261" stop-color="#5394ff"/><stop offset=".45" stop-color="#4db6ff"/><stop offset=".664" stop-color="#46e4ff"/><stop offset=".774" stop-color="#42ffff"/></linearGradient><linearGradient id="F" x1="43049.8" y1="11841.4" x2="44801.1" y2="14383.9" xlink:href="#m"><stop stop-color="#bcbeff"/><stop offset=".23" stop-color="#aaadf8"/><stop offset=".68" stop-color="#7c83e5"/><stop offset="1" stop-color="#5761d7"/></linearGradient><linearGradient id="G" x1="42531.6" y1="17439.7" x2="47674.8" y2="17439.7" xlink:href="#m"><stop stop-color="#e9e9fd"/><stop offset=".36" stop-color="#d3d2f9"/><stop offset=".71" stop-color="#c5c4f7"/><stop offset="1" stop-color="#c0bff6"/></linearGradient><linearGradient id="H" x1="43049.8" y1="10492.5" x2="44800.6" y2="13034.3" xlink:href="#m"><stop stop-color="#bcbeff"/><stop offset=".23" stop-color="#aaadf8"/><stop offset=".68" stop-color="#7c83e5"/><stop offset="1" stop-color="#5761d7"/></linearGradient><linearGradient id="I" x1="42531.6" y1="15503.9" x2="47674.8" y2="15503.9" xlink:href="#m"><stop stop-color="#e9e9fd"/><stop offset=".36" stop-color="#d3d2f9"/><stop offset=".71" stop-color="#c5c4f7"/><stop offset="1" stop-color="#c0bff6"/></linearGradient><linearGradient id="J" x1="224.231" y1="469.7" x2="54.141" y2="470.704" xlink:href="#m"><stop stop-color="#5778ff"/><stop offset=".104" stop-color="#567fff"/><stop offset=".261" stop-color="#5394ff"/><stop offset=".45" stop-color="#4db6ff"/><stop offset=".664" stop-color="#46e4ff"/><stop offset=".774" stop-color="#42ffff"/></linearGradient><linearGradient id="K" x1="26610.7" y1="5161.86" x2="28362.1" y2="7702.14" xlink:href="#m"><stop stop-color="#bcbeff"/><stop offset=".23" stop-color="#aaadf8"/><stop offset=".68" stop-color="#7c83e5"/><stop offset="1" stop-color="#5761d7"/></linearGradient><linearGradient id="L" x1="26074.4" y1="7900.77" x2="31208.5" y2="7900.77" xlink:href="#m"><stop stop-color="#e9e9fd"/><stop offset=".36" stop-color="#d3d2f9"/><stop offset=".71" stop-color="#c5c4f7"/><stop offset="1" stop-color="#c0bff6"/></linearGradient><linearGradient id="M" x1="26610.7" y1="3948.11" x2="28367.1" y2="6490.26" xlink:href="#m"><stop stop-color="#bcbeff"/><stop offset=".23" stop-color="#aaadf8"/><stop offset=".68" stop-color="#7c83e5"/><stop offset="1" stop-color="#5761d7"/></linearGradient><linearGradient id="N" x1="517.702" y1="116.854" x2="588.41" y2="157.638" xlink:href="#m"><stop offset=".24" stop-color="#5761d7"/><stop offset=".39" stop-color="#7a82e5"/><stop offset=".55" stop-color="#979cf0"/><stop offset=".7" stop-color="#acaff8"/><stop offset=".85" stop-color="#b8bafd"/><stop offset="1" stop-color="#bcbeff"/></linearGradient><linearGradient id="O" x1="26099.3" y1="6150.71" x2="31238.3" y2="6150.71" xlink:href="#m"><stop stop-color="#e9e9fd"/><stop offset=".36" stop-color="#d3d2f9"/><stop offset=".71" stop-color="#c5c4f7"/><stop offset="1" stop-color="#c0bff6"/></linearGradient><linearGradient id="P" x1="25381.1" y1="5963.93" x2="30207.3" y2="5963.93" xlink:href="#m"><stop stop-color="#e9e9fd"/><stop offset=".36" stop-color="#d3d2f9"/><stop offset=".71" stop-color="#c5c4f7"/><stop offset="1" stop-color="#c0bff6"/></linearGradient><linearGradient id="Q" x1="411.839" y1="311.499" x2="496.886" y2="164.194" xlink:href="#m"><stop stop-color="#5778ff"/><stop offset=".104" stop-color="#567fff"/><stop offset=".261" stop-color="#5394ff"/><stop offset=".45" stop-color="#4db6ff"/><stop offset=".664" stop-color="#46e4ff"/><stop offset=".774" stop-color="#42ffff"/></linearGradient><linearGradient id="R" x1="99913" y1="-16197.8" x2="118875" y2="14589.1" xlink:href="#m"><stop stop-color="#35068c"/><stop offset=".02" stop-color="#40ddda"/><stop offset=".09" stop-color="#3aaec0"/><stop offset=".17" stop-color="#3484a9"/><stop offset=".26" stop-color="#2f6195"/><stop offset=".35" stop-color="#2b4486"/><stop offset=".44" stop-color="#282e79"/><stop offset=".54" stop-color="#261e71"/><stop offset=".66" stop-color="#24156c"/><stop offset=".82" stop-color="#24126a"/></linearGradient><linearGradient id="S" x1="109.179" y1="362.675" x2="420.214" y2="362.675" xlink:href="#m"><stop stop-color="#3671e9"/><stop offset=".15" stop-color="#91a2fa"/><stop offset=".33" stop-color="#8b97f1"/><stop offset=".52" stop-color="#7366c8"/><stop offset=".72" stop-color="#654cb3"/><stop offset=".93" stop-color="#4127a7"/><stop offset="1" stop-color="#260672"/></linearGradient><linearGradient id="T" x1="22161.8" y1="45113.4" x2="84817.2" y2="45113.4" xlink:href="#m"><stop stop-color="#42e8e0"/><stop offset=".15" stop-color="#43e3e0"/><stop offset=".33" stop-color="#45d5df"/><stop offset=".52" stop-color="#49bddd"/><stop offset=".72" stop-color="#4e9cdb"/><stop offset=".93" stop-color="#5472d8"/><stop offset="1" stop-color="#5761d7"/></linearGradient><linearGradient id="U" x1="102648" y1="-22241.8" x2="121610" y2="8545.16" xlink:href="#m"><stop stop-color="#654cb2"/><stop offset=".02" stop-color="#40ddda"/><stop offset=".09" stop-color="#3aaec0"/><stop offset=".17" stop-color="#3484a9"/><stop offset=".26" stop-color="#2f6195"/><stop offset=".35" stop-color="#2b4486"/><stop offset=".44" stop-color="#282e79"/><stop offset=".54" stop-color="#261e71"/><stop offset=".66" stop-color="#24156c"/><stop offset=".82" stop-color="#24126a"/></linearGradient><linearGradient id="V" x1="265.442" y1="212.227" x2="343.293" y2="600.925" xlink:href="#m"><stop stop-color="#42e8e0"/><stop offset=".02" stop-color="#40ddda"/><stop offset=".09" stop-color="#3aaec0"/><stop offset=".17" stop-color="#3484a9"/><stop offset=".26" stop-color="#2f6195"/><stop offset=".35" stop-color="#2b4486"/><stop offset=".44" stop-color="#282e79"/><stop offset=".54" stop-color="#261e71"/><stop offset=".66" stop-color="#24156c"/><stop offset=".82" stop-color="#24126a"/></linearGradient><linearGradient id="W" x1="150.873" y1="296.03" x2="429.065" y2="296.03" xlink:href="#m"><stop stop-color="#2b237c"/><stop offset="1" stop-color="#180d5b"/></linearGradient><linearGradient id="X" x1="20001.9" y1="28406.6" x2="42857.5" y2="28406.6" xlink:href="#m"><stop stop-color="#2b237c"/><stop offset="1" stop-color="#180d5b"/></linearGradient><linearGradient id="Y" x1="1070.96" y1="2185.27" x2="1075.07" y2="2244.98" xlink:href="#m"><stop stop-color="#2b237d"/><stop offset=".02" stop-color="#40ddda"/><stop offset=".09" stop-color="#3aaec0"/><stop offset=".17" stop-color="#3484a9"/><stop offset=".26" stop-color="#2f6195"/><stop offset=".35" stop-color="#2b4486"/><stop offset=".44" stop-color="#282e79"/><stop offset=".54" stop-color="#261e71"/><stop offset=".66" stop-color="#24156c"/><stop offset=".82" stop-color="#24126a"/></linearGradient><linearGradient id="Z" x1="1199.55" y1="2106.98" x2="1203.53" y2="2166.7" xlink:href="#m"><stop stop-color="#2c247e"/><stop offset=".02" stop-color="#40ddda"/><stop offset=".09" stop-color="#3aaec0"/><stop offset=".17" stop-color="#3484a9"/><stop offset=".26" stop-color="#2f6195"/><stop offset=".35" stop-color="#2b4486"/><stop offset=".44" stop-color="#282e79"/><stop offset=".54" stop-color="#261e71"/><stop offset=".66" stop-color="#24156c"/><stop offset=".82" stop-color="#24126a"/></linearGradient><linearGradient id="a" x1="1500.15" y1="2571.07" x2="1507.74" y2="2655.26" xlink:href="#m"><stop stop-color="#2b237c"/><stop offset="1" stop-color="#180d5b"/></linearGradient><linearGradient id="b" x1="2503.47" y1="3407.33" x2="2587.26" y2="3421.55" xlink:href="#m"><stop stop-color="#2b237c"/><stop offset="1" stop-color="#180d5b"/></linearGradient><linearGradient id="c" x1="20982.3" y1="26289.2" x2="90746.6" y2="51600.8" xlink:href="#m"><stop stop-color="#654db3"/><stop offset=".09" stop-color="#40ddda"/><stop offset=".09" stop-color="#e9e9fe"/><stop offset=".17" stop-color="#654db3"/><stop offset=".26" stop-color="#2f6195"/><stop offset=".35" stop-color="#2b4486"/><stop offset=".44" stop-color="#282e79"/><stop offset=".54" stop-color="#261e71"/><stop offset=".66" stop-color="#24156c"/><stop offset=".82" stop-color="#24126a"/></linearGradient><linearGradient id="d" x1="3177.8" y1="5207.83" x2="3316.46" y2="5228.76" xlink:href="#m"><stop stop-color="#2b237c"/><stop offset="1" stop-color="#180d5b"/></linearGradient><linearGradient id="e" x1="2978.49" y1="5362.92" x2="3117.15" y2="5383.85" xlink:href="#m"><stop stop-color="#2b237c"/><stop offset="1" stop-color="#180d5b"/></linearGradient><linearGradient id="f" x1="2520.2" y1="5510.32" x2="2691.03" y2="5536.14" xlink:href="#m"><stop stop-color="#2b237c"/><stop offset="1" stop-color="#180d5b"/></linearGradient><linearGradient id="g" x1="1590.94" y1="4620.31" x2="1615.03" y2="4912.35" xlink:href="#m"><stop stop-color="#2c247d"/><stop offset=".02" stop-color="#40ddda"/><stop offset=".09" stop-color="#3aaec0"/><stop offset=".17" stop-color="#3484a9"/><stop offset=".26" stop-color="#2f6195"/><stop offset=".35" stop-color="#2b4486"/><stop offset=".44" stop-color="#282e79"/><stop offset=".54" stop-color="#261e71"/><stop offset=".66" stop-color="#24156c"/><stop offset=".82" stop-color="#24126a"/></linearGradient><linearGradient id="h" x1="1942.09" y1="4878.14" x2="1965.01" y2="5179.3" xlink:href="#m"><stop stop-color="#2b237c"/><stop offset="1" stop-color="#180d5b"/></linearGradient><linearGradient id="i" x1="14272.3" y1="14027.1" x2="14396.3" y2="17334.1" xlink:href="#m"><stop stop-color="#91a2fa"/><stop offset=".02" stop-color="#91a2fa"/><stop offset=".02" stop-color="#654db3"/><stop offset=".17" stop-color="#654db3"/><stop offset=".26" stop-color="#654cb3"/><stop offset=".35" stop-color="#35068c"/></linearGradient><linearGradient id="m" gradientUnits="userSpaceOnUse"/><path id="j" d="m545.876 574.342-38.434-22.201c-4.508-2.585-4.508-6.823 0-9.428l38.434-22.201a18.14 18.14 0 0 1 8.161-1.939c2.834 0 5.629.664 8.161 1.939l38.434 22.201c4.488 2.605 4.488 6.843 0 9.428l-38.434 22.201a18.027 18.027 0 0 1-16.322 0z"/><path id="k" d="m544.794 221.091-38.318-22.2c-4.506-2.605-4.506-6.824 0-9.429l38.318-22.278a18.013 18.013 0 0 1 16.314 0l38.416 22.201c4.505 2.605 4.505 6.823 0 9.428l-38.416 22.201a18.015 18.015 0 0 1-8.147 1.992 18.02 18.02 0 0 1-8.167-1.915z"/><path id="l" d="m135.423 388.801-1.491-.855 242.337-140.034 1.491.855-242.337 140.034z"/></defs></svg>