<svg xmlns="http://www.w3.org/2000/svg" xmlns:xlink="http://www.w3.org/1999/xlink" width="134" height="40" fill="none"><g fill="#fff"><path d="M20 40c11.046 0 20-8.954 20-20S31.046 0 20 0 0 8.954 0 20s8.954 20 20 20z" fill-opacity=".1"/><path d="M18.842 28.046a8.141 8.141 0 0 1-6.946-8.057 8.14 8.14 0 0 1 6.946-8.057v-4.24a12.35 12.35 0 0 0 0 24.593v-4.24zM26.998 12l-.109.371v10.768l.109.109 4.999-2.955L26.998 12z"/><path d="M26.998 12 22 20.294l4.999 2.955V12zm.001 12.874-.061.075v3.836l.061.18L32 21.921l-5.002 2.953z"/><path d="M26.998 28.965v-4.091L22 21.921l4.999 7.044zm0-5.717 4.998-2.954-4.998-2.272v5.227zM22 20.294l4.998 2.954v-5.227L22 20.294zm46.496-1.968c-.403-2.908-2.64-4.596-5.542-4.596-3.42 0-5.996 2.493-5.996 6.724 0 4.225 2.544 6.724 5.996 6.724 3.113 0 5.178-2.013 5.542-4.513l-2.391-.013c-.3 1.534-1.553 2.397-3.119 2.397-2.122 0-3.643-1.592-3.643-4.596 0-2.953 1.509-4.596 3.65-4.596 1.592 0 2.838.901 3.113 2.467h2.391zM71.388 27h2.372v-4.794h2.416L78.745 27h2.646l-2.832-5.19c1.54-.62 2.352-1.937 2.352-3.714 0-2.499-1.611-4.187-4.615-4.187h-4.909V27zm2.372-6.763V15.89h2.173c1.771 0 2.563.812 2.563 2.205s-.793 2.141-2.55 2.141H73.76zM85.496 27l1.08-3.228h4.922L92.585 27h2.531l-4.615-13.091h-2.928L82.965 27h2.531zm1.719-5.133 1.771-5.273h.102l1.771 5.273h-3.644z"/><use xlink:href="#a"/><use xlink:href="#a" x="12.304"/><path d="M133.866 20.455c0-4.232-2.582-6.724-6.015-6.724-3.439 0-6.015 2.493-6.015 6.724 0 4.225 2.576 6.724 6.015 6.724 3.433 0 6.015-2.493 6.015-6.724zm-2.384 0c0 2.979-1.496 4.596-3.631 4.596-2.128 0-3.631-1.617-3.631-4.596s1.503-4.596 3.631-4.596c2.135 0 3.631 1.617 3.631 4.596z"/></g><defs><path id="a" d="M97.561 27h2.371v-4.423h2.506c3.023 0 4.647-1.815 4.647-4.334 0-2.499-1.605-4.334-4.615-4.334h-4.909V27zm2.371-6.373v-4.736h2.173c1.777 0 2.564.959 2.564 2.352s-.787 2.384-2.551 2.384h-2.186z"/></defs></svg>